PathFileType	4	(x/y/z)	S09_P20_T26
DataRate	CameraRate	NumFrames	NumMarkers	Units	OrigDataRate	OrigDataStartFrame	OrigNumFrames
240	240	8	51	mm	240	99	394
Frame#	Time	Sternum			R.Acromium			L.Acromium			Top.Head			R.ASIS			L.ASIS			R.PSIS			L.PSIS			R.Great.Tro			L.Great.Tro			R.Iliac.Crest			L.Iliac.Crest			V.Sacral			R.Thigh.Upper.Post			R.Thigh.Lower.Ant			R.Thigh.Lower.Post			R.Thigh.Upper.Ant			R.Knee.Lat			R.Knee.Med			R.Shank.Upper.Post			R.Shank.Lower.Ant			R.Shank.Lower.Post			R.Shank.Upper.Ant			R.Ankle.Lat			R.Ankle.Med			R.Heel.Upper			R.Heel.Med			R.Heel.Lat			R.Toe.Lat			R.Toe.Med			R.Toe.Tip			L.Thigh.Upper.Post			L.Thigh.Lower.Ant			L.Thigh.Lower.Post			L.Thigh.Upper.Ant			L.Knee.Lat			L.Knee.Med			L.Shank.Upper.Post			L.Shank.Lower.Ant			L.Shank.Lower.Post			L.Shank.Upper.Ant			L.Ankle.Lat			L.Ankle.Med			L.Heel.Upper			L.Heel.Med			L.Heel.Lat			L.Toe.Lat			L.Toe.Med			L.Toe.Tip			Cervical.Spine			Back			
		X1	Y1	Z1	X2	Y2	Z2	X3	Y3	Z3	X4	Y4	Z4	X5	Y5	Z5	X6	Y6	Z6	X7	Y7	Z7	X8	Y8	Z8	X9	Y9	Z9	X10	Y10	Z10	X11	Y11	Z11	X12	Y12	Z12	X13	Y13	Z13	X14	Y14	Z14	X15	Y15	Z15	X16	Y16	Z16	X17	Y17	Z17	X18	Y18	Z18	X19	Y19	Z19	X20	Y20	Z20	X21	Y21	Z21	X22	Y22	Z22	X23	Y23	Z23	X24	Y24	Z24	X25	Y25	Z25	X26	Y26	Z26	X27	Y27	Z27	X28	Y28	Z28	X29	Y29	Z29	X30	Y30	Z30	X31	Y31	Z31	X32	Y32	Z32	X33	Y33	Z33	X34	Y34	Z34	X35	Y35	Z35	X36	Y36	Z36	X37	Y37	Z37	X38	Y38	Z38	X39	Y39	Z39	X40	Y40	Z40	X41	Y41	Z41	X42	Y42	Z42	X43	Y43	Z43	X44	Y44	Z44	X45	Y45	Z45	X46	Y46	Z46	X47	Y47	Z47	X48	Y48	Z48	X49	Y49	Z49	X50	Y50	Z50	X51	Y51	Z51	

99	0.40833	-769.39	1188.8	304.13	-907.6	1441.5	443.64	-873.99	1444.9	134.88	-899.16	1749.9	286.47	-837.48	1026.2	396.87	-838.72	1024.5	150.61	-1058.2	1055.4	321.07	-1049.9	1063.6	233.17	-917.58	942.1	469.06	-927	940.7	86.135	-907.82	1099.7	438.04	-935.23	1127.6	118.74	-1073.4	1024.8	273.14	-845.4	701.78	451.48	-746.01	626.77	415.85	-823.69	613.04	426.72	-774.63	709.93	441.82	-747.03	548.34	409.36	-740.52	539.07	284.44	-772.96	363.45	407.33	-689.31	326.05	412.72	-750.67	290.42	399.07	-716.58	394.9	421.25	-662.12	117.91	391.71	-621.26	143.28	315.56	-701.62	77.428	324.79	-673.06	54.663	300.14	-695.95	47.343	360.11	-559.75	84.957	450.06	-496.15	115.57	362.76	-473.34	145.96	414.71	-1040.9	704.92	147.84	-979.48	593.5	147.4	-1044.4	616.65	167.62	-975.77	680.4	122.93	-1013.3	517.13	162.5	-982.57	528.2	292.25	-1093.5	399.77	157.01	-1056.1	296.95	173.49	-1112.1	326.24	167.19	-1036.4	371.75	163.14	-1149.5	127.83	202.47	-1135.4	122.53	293.84	-1231.9	104.95	255.31	-1223.3	78.176	287.91	-1235.5	76.281	227.27	-1064.8	43.749	174	-1027.6	40.15	281.43	-973.4	44.144	222.96	-976.2	1495.5	291.03	-1029.6	1232.8	268
100	0.4125	-763.81	1188.2	304.14	-902.03	1441	443.79	-868.61	1444.3	135	-893.7	1749.3	286.59	-831.61	1025.5	396.85	-833.45	1024	150.54	-1052.5	1055.1	321.54	-1044.4	1063.4	233.62	-912.06	941.28	468.96	-922.27	940.38	86.205	-902.67	1099.4	438.35	-929.86	1127.1	118.91	-1067.9	1024.7	273.65	-841.52	700.42	451.09	-742.59	624.92	415.54	-820.44	611.71	425.97	-770.73	708.14	441.78	-743.38	547.3	408.68	-737.5	537.97	283.32	-765.45	362.24	407.12	-681.1	326.44	411.75	-741.79	289.58	398.88	-709.63	394.79	420.33	-649.44	118.42	391.14	-609.93	144.54	314.62	-688.77	76.677	324.82	-659.76	54.489	299.96	-681.96	46.832	360.15	-545.81	88.147	448.72	-483.77	119.97	360.74	-461.15	151.12	412.33	-1036.9	705.13	148.28	-975.96	593.43	147.31	-1040.7	616.75	167.91	-971.94	680.35	123.01	-1010	517.14	162.46	-978.74	527.95	292.13	-1090.8	400.33	157.01	-1054.2	297.17	173.39	-1110.1	326.84	167.28	-1034	371.87	163.04	-1148.7	128.69	202.42	-1134.6	123.31	293.79	-1231.2	106.24	255.29	-1222.8	79.468	287.9	-1235	77.589	227.28	-1064.6	43.827	173.98	-1027.4	40.251	281.4	-973.19	43.957	222.91	-970.75	1495	291.22	-1024.1	1232.2	268.28
101	0.41667	-758.22	1187.6	304.16	-896.45	1440.4	443.95	-863.24	1443.7	135.13	-888.23	1748.8	286.72	-825.74	1024.8	396.83	-828.18	1023.4	150.48	-1046.8	1054.9	322.03	-1038.9	1063.2	234.09	-906.48	940.47	468.89	-917.53	940.05	86.285	-897.72	1099.1	438.72	-924.47	1126.6	119.09	-1062.4	1024.6	274.17	-837.55	699.1	450.71	-739.07	623.12	415.24	-817.08	610.41	425.21	-766.73	706.39	441.77	-739.6	546.31	408.01	-734.46	536.88	282.24	-758.05	361.14	406.97	-673.06	326.83	410.76	-733.13	288.84	398.72	-702.74	394.71	419.4	-637.3	118.98	390.53	-599.15	145.77	313.62	-676.49	75.997	324.83	-647.08	54.362	299.76	-668.58	46.417	360.17	-532.46	91.325	447.29	-472.05	124.23	358.59	-449.56	156.13	409.79	-1032.9	705.3	148.71	-972.33	593.34	147.23	-1036.8	616.83	168.19	-968.04	680.26	123.09	-1006.6	517.13	162.43	-974.81	527.66	292.02	-1088.1	400.87	157	-1052.2	297.38	173.3	-1108	327.46	167.35	-1031.6	371.97	162.95	-1147.9	129.57	202.37	-1133.8	124.11	293.72	-1230.5	107.58	255.26	-1222.3	80.807	287.88	-1234.6	78.939	227.28	-1064.4	43.911	173.96	-1027.2	40.363	281.37	-972.98	43.779	222.86	-965.3	1494.4	291.42	-1018.6	1231.6	268.58
102	0.42083	-752.62	1187	304.18	-890.85	1439.9	444.12	-857.88	1443.2	135.26	-882.76	1748.2	286.85	-819.85	1024.2	396.81	-822.9	1022.8	150.42	-1041	1054.6	322.54	-1033.3	1062.9	234.57	-900.85	939.66	468.84	-912.76	939.7	86.375	-892.93	1098.8	439.12	-919.07	1126.1	119.27	-1056.8	1024.4	274.71	-833.47	697.82	450.35	-735.41	621.39	414.94	-813.58	609.16	424.47	-762.61	704.69	441.77	-735.67	545.38	407.33	-731.36	535.81	281.19	-750.75	360.13	406.87	-665.22	327.19	409.73	-724.7	288.17	398.6	-695.92	394.62	418.47	-625.72	119.56	389.86	-588.93	146.92	312.54	-664.83	75.365	324.8	-635.07	54.254	299.52	-655.82	46.069	360.16	-519.75	94.437	445.77	-460.98	128.31	356.32	-438.59	160.92	407.13	-1028.7	705.42	149.14	-968.6	593.22	147.16	-1032.9	616.87	168.47	-964.04	680.15	123.16	-1003.1	517.08	162.4	-970.76	527.35	291.91	-1085.2	401.41	156.98	-1050.2	297.59	173.21	-1105.8	328.09	167.39	-1029	372.06	162.86	-1147	130.49	202.3	-1133	124.94	293.65	-1229.8	108.97	255.21	-1221.8	82.197	287.85	-1234.1	80.335	227.27	-1064.2	44.001	173.92	-1027	40.484	281.35	-972.78	43.609	222.81	-959.86	1493.9	291.65	-1013.1	1231	268.9
103	0.425	-746.99	1186.4	304.21	-885.25	1439.3	444.31	-852.53	1442.6	135.4	-877.29	1747.7	287	-813.94	1023.5	396.81	-817.61	1022.3	150.36	-1035.2	1054.2	323.07	-1027.8	1062.6	235.07	-895.14	938.85	468.8	-907.98	939.34	86.474	-888.23	1098.5	439.56	-913.64	1125.6	119.47	-1051.3	1024.1	275.27	-829.27	696.59	450.01	-731.6	619.75	414.64	-809.92	607.98	423.75	-758.35	703.07	441.78	-731.57	544.51	406.66	-728.2	534.76	280.19	-743.58	359.2	406.81	-657.59	327.52	408.69	-716.52	287.57	398.51	-689.19	394.52	417.52	-614.73	120.12	389.13	-579.3	147.96	311.4	-653.81	74.756	324.72	-623.74	54.141	299.23	-643.74	45.757	360.09	-507.7	97.425	444.15	-450.6	132.14	353.95	-428.25	165.45	404.35	-1024.5	705.5	149.55	-964.75	593.06	147.1	-1028.8	616.87	168.73	-959.94	680	123.24	-999.51	516.99	162.39	-966.6	527	291.8	-1082.3	401.94	156.96	-1048.1	297.79	173.13	-1103.5	328.74	167.42	-1026.3	372.13	162.77	-1146.1	131.43	202.21	-1132.1	125.8	293.57	-1229	110.4	255.15	-1221.2	83.64	287.81	-1233.6	81.78	227.24	-1064	44.098	173.89	-1026.8	40.614	281.33	-972.58	43.448	222.76	-954.41	1493.3	291.88	-1007.5	1230.4	269.24
104	0.42917	-741.36	1185.8	304.24	-879.64	1438.8	444.51	-847.2	1442	135.55	-871.82	1747.1	287.15	-808.03	1022.8	396.8	-812.31	1021.7	150.31	-1029.5	1053.9	323.61	-1022.2	1062.3	235.59	-889.36	938.06	468.79	-903.17	938.96	86.581	-883.59	1098.3	440.02	-908.21	1125.1	119.69	-1045.7	1023.8	275.84	-824.92	695.43	449.69	-727.61	618.2	414.32	-806.07	606.86	423.06	-753.94	701.54	441.78	-727.28	543.7	405.99	-724.92	533.75	279.24	-736.53	358.35	406.77	-650.16	327.78	407.61	-708.6	287.01	398.43	-682.55	394.4	416.57	-604.37	120.63	388.34	-570.26	148.88	310.2	-643.45	74.149	324.57	-613.13	53.999	298.87	-632.36	45.451	359.96	-496.34	100.23	442.46	-440.89	135.7	351.48	-418.57	169.66	401.47	-1020.2	705.53	149.95	-960.79	592.87	147.05	-1024.7	616.83	168.99	-955.75	679.83	123.33	-995.76	516.87	162.38	-962.32	526.62	291.7	-1079.2	402.46	156.94	-1045.9	297.98	173.05	-1101	329.4	167.43	-1023.5	372.19	162.69	-1145.2	132.41	202.12	-1131.2	126.69	293.48	-1228.2	111.88	255.08	-1220.6	85.142	287.76	-1233.1	83.28	227.21	-1063.8	44.203	173.85	-1026.6	40.753	281.31	-972.38	43.295	222.72	-948.97	1492.7	292.14	-1002	1229.7	269.6
105	0.43333	-735.71	1185.3	304.28	-874.03	1438.2	444.73	-841.88	1441.4	135.7	-866.35	1746.5	287.3	-802.1	1022.1	396.8	-807.01	1021.1	150.26	-1023.6	1053.5	324.17	-1016.7	1061.9	236.12	-883.5	937.29	468.81	-898.33	938.58	86.695	-878.96	1098.1	440.49	-902.76	1124.6	119.91	-1040.1	1023.5	276.43	-820.41	694.34	449.4	-723.43	616.76	413.98	-802.02	605.81	422.41	-749.36	700.1	441.77	-722.79	542.95	405.32	-721.52	532.77	278.35	-729.63	357.56	406.76	-642.95	327.95	406.52	-700.96	286.48	398.34	-676	394.24	415.63	-594.64	121.04	387.48	-561.82	149.64	308.94	-633.76	73.524	324.35	-603.24	53.808	298.45	-621.71	45.124	359.75	-485.68	102.81	440.67	-431.88	138.92	348.93	-409.54	173.49	398.52	-1015.8	705.5	150.33	-956.7	592.65	147	-1020.4	616.75	169.24	-951.45	679.62	123.41	-991.87	516.72	162.38	-957.92	526.22	291.61	-1076.1	402.97	156.92	-1043.6	298.17	172.98	-1098.5	330.07	167.43	-1020.6	372.23	162.62	-1144.2	133.42	202.01	-1130.2	127.62	293.38	-1227.4	113.43	254.99	-1220	86.706	287.7	-1232.5	84.839	227.17	-1063.6	44.315	173.8	-1026.3	40.899	281.29	-972.17	43.151	222.69	-943.52	1492.1	292.41	-996.47	1229.1	269.97
106	0.4375	-730.05	1184.7	304.32	-868.4	1437.7	444.96	-836.56	1440.8	135.87	-860.89	1746	287.47	-796.16	1021.4	396.8	-801.69	1020.5	150.22	-1017.8	1053.1	324.75	-1011.1	1061.5	236.66	-877.57	936.54	468.85	-893.47	938.18	86.814	-874.29	1097.8	440.97	-897.31	1124	120.15	-1034.4	1023.2	277.04	-815.72	693.32	449.14	-719.04	615.45	413.62	-797.74	604.84	421.79	-744.6	698.78	441.74	-718.1	542.26	404.65	-717.95	531.82	277.52	-722.87	356.83	406.76	-635.97	328.03	405.41	-693.61	285.98	398.26	-669.54	394.03	414.68	-585.56	121.34	386.56	-553.99	150.22	307.62	-624.78	72.866	324.05	-594.1	53.55	297.93	-611.8	44.752	359.45	-475.74	105.11	438.82	-423.55	141.78	346.31	-401.17	176.9	395.51	-1011.2	705.42	150.7	-952.48	592.39	146.97	-1016	616.63	169.49	-947.04	679.37	123.5	-987.84	516.52	162.39	-953.4	525.78	291.52	-1072.8	403.47	156.9	-1041.2	298.35	172.92	-1095.8	330.75	167.43	-1017.6	372.25	162.55	-1143.2	134.46	201.89	-1129.2	128.59	293.27	-1226.5	115.03	254.89	-1219.4	88.336	287.63	-1231.9	86.463	227.12	-1063.4	44.436	173.75	-1026.1	41.051	281.27	-971.97	43.015	222.65	-938.08	1491.5	292.7	-990.92	1228.4	270.36
